<?xml version="1.0" encoding="UTF-8" standalone="no"?>
<!-- Uploaded to: SVG Repo, www.svgrepo.com, Generator: SVG Repo Mixer Tools -->

<svg
   fill="#000000"
   version="1.1"
   id="Capa_1"
   width="800px"
   height="800px"
   viewBox="0 0 861.143 861.144"
   xml:space="preserve"
   sodipodi:docname="circular-clockwise-rotating-arrow.svg"
   inkscape:version="1.4.2 (ebf0e940d0, 2025-05-08)"
   xmlns:inkscape="http://www.inkscape.org/namespaces/inkscape"
   xmlns:sodipodi="http://sodipodi.sourceforge.net/DTD/sodipodi-0.dtd"
   xmlns="http://www.w3.org/2000/svg"
   xmlns:svg="http://www.w3.org/2000/svg"><defs
   id="defs1"><rect
     x="228.94309"
     y="314.79675"
     width="340.81301"
     height="314.79675"
     id="rect1" /></defs><sodipodi:namedview
   id="namedview1"
   pagecolor="#ffffff"
   bordercolor="#000000"
   borderopacity="0.25"
   inkscape:showpageshadow="2"
   inkscape:pageopacity="0.0"
   inkscape:pagecheckerboard="0"
   inkscape:deskcolor="#d1d1d1"
   inkscape:zoom="0.76875"
   inkscape:cx="355.12195"
   inkscape:cy="573.00813"
   inkscape:window-width="1440"
   inkscape:window-height="868"
   inkscape:window-x="0"
   inkscape:window-y="0"
   inkscape:window-maximized="1"
   inkscape:current-layer="Capa_1" />
<g
   id="g1">
	<path
   d="M803.661,613.847c21.129-49.956,31.842-102.991,31.842-157.634c0-46.664-7.883-92.431-23.43-136.031   c-15.025-42.134-36.846-81.294-64.859-116.393c-27.734-34.751-60.746-64.539-98.117-88.534   c-38.072-24.445-79.621-42.192-123.492-52.748c-28.191-6.782-56.543,10.571-63.326,38.761s10.572,56.542,38.762,63.325   c64.291,15.47,122.572,52.651,164.109,104.694c20.75,26.001,36.908,54.99,48.023,86.162c11.5,32.249,17.332,66.151,17.332,100.764   c0,80.114-31.197,155.435-87.848,212.083c-56.65,56.649-131.971,87.848-212.084,87.848c-80.114,0-155.434-31.198-212.083-87.849   c-56.65-56.648-87.848-131.969-87.848-212.083c0-59.197,17.208-116.435,49.763-165.521c28.053-42.3,66.007-76.562,110.547-100.007   v58.027c0,28.995,23.505,52.5,52.5,52.5s52.5-23.505,52.5-52.5V52.5c0-28.995-23.505-52.5-52.5-52.5H144.567   c-28.995,0-52.5,23.505-52.5,52.5c0,28.995,23.505,52.5,52.5,52.5h84.328C174.456,136.276,127.939,179.822,92.9,232.655   c-44.001,66.346-67.259,143.65-67.259,223.557c0,54.643,10.714,107.679,31.843,157.634c20.398,48.225,49.587,91.524,86.759,128.695   c37.171,37.171,80.471,66.361,128.696,86.759c49.956,21.13,102.991,31.844,157.634,31.844c54.644,0,107.677-10.714,157.634-31.844   c48.225-20.397,91.523-49.587,128.695-86.759C754.073,705.371,783.262,662.071,803.661,613.847z"
   id="path1" />
</g>
<text
   xml:space="preserve"
   transform="matrix(1.07643,0,0,1.07643,-5e-4,0)"
   id="text1"
   style="font-weight:900;font-size:213.333px;font-family:'Source Code Pro';-inkscape-font-specification:'Source Code Pro, Heavy';text-align:start;writing-mode:lr-tb;direction:ltr;white-space:pre;shape-inside:url(#rect1);fill:#f6e495" /><text
   xml:space="preserve"
   style="font-weight:900;font-size:229.638px;font-family:'Source Code Pro';-inkscape-font-specification:'Source Code Pro, Heavy';text-align:start;writing-mode:lr-tb;direction:ltr;text-anchor:start;fill:#f6e495;stroke-width:1.07643"
   x="378.06271"
   y="544.6911"
   id="text2"><tspan
     sodipodi:role="line"
     id="tspan2"
     style="stroke-width:1.07643"
     x="378.06271"
     y="544.6911" /></text><text
   xml:space="preserve"
   style="font-style:normal;font-variant:normal;font-weight:bold;font-stretch:normal;font-size:336.827px;font-family:'DejaVu Serif';-inkscape-font-specification:'DejaVu Serif, Bold';font-variant-ligatures:normal;font-variant-caps:normal;font-variant-numeric:normal;font-variant-east-asian:normal;text-align:start;writing-mode:lr-tb;direction:ltr;text-anchor:start;fill:#000000;fill-opacity:1;stroke-width:1.57888"
   x="230.71039"
   y="564.14294"
   id="text3"
   transform="scale(0.92336215,1.0829987)"><tspan
     sodipodi:role="line"
     id="tspan3"
     style="font-style:normal;font-variant:normal;font-weight:bold;font-stretch:normal;font-size:336.827px;font-family:'DejaVu Serif';-inkscape-font-specification:'DejaVu Serif, Bold';font-variant-ligatures:normal;font-variant-caps:normal;font-variant-numeric:normal;font-variant-east-asian:normal;fill:#000000;fill-opacity:1;stroke-width:1.57888"
     x="230.71039"
     y="564.14294">90</tspan></text></svg>
